<svg width="200" height="200" viewBox="0 0 200 200" fill="none" xmlns="http://www.w3.org/2000/svg">
<path d="M98.8019 117.446H112.842V153.987C112.842 157.864 109.699 161.007 105.822 161.007C101.945 161.007 98.8019 157.864 98.8019 153.987V117.446Z" fill="url(#paint0_linear_9488_7595)"/>
<path d="M76.1213 51.9241C62.0045 51.9241 50.5606 63.368 50.5606 77.4847V112.766H25V117.446H101.682V77.4847C101.682 63.368 90.2381 51.9241 76.1213 51.9241Z" fill="url(#paint1_linear_9488_7595)"/>
<path d="M101.682 117.446H160.723V82.5249C160.723 65.6245 147.023 51.9241 130.123 51.9241H77.2013C79.5433 51.9241 81.6593 52.3106 83.5711 53.0267C94.054 56.2157 101.682 65.9594 101.682 77.4847V117.446Z" fill="url(#paint2_linear_9488_7595)"/>
<rect x="25" y="117.446" width="4.68011" height="76.6819" transform="rotate(-90 25 117.446)" fill="url(#paint3_linear_9488_7595)"/>
<path d="M145.243 55.1639C145.243 60.5322 140.891 64.8841 135.523 64.8841C130.154 64.8841 125.803 60.5322 125.803 55.1639C125.803 49.7955 130.154 45.4436 135.523 45.4436C140.891 45.4436 145.243 49.7955 145.243 55.1639Z" fill="url(#paint4_linear_9488_7595)"/>
<path d="M131.673 59.1242C130.984 59.1217 130.388 58.962 129.887 58.645C129.385 58.328 128.998 57.871 128.727 57.2742C128.455 56.6773 128.32 55.9616 128.323 55.1269C128.325 54.2898 128.461 53.5791 128.73 52.9946C129.002 52.4101 129.388 51.9655 129.887 51.6609C130.388 51.3563 130.984 51.204 131.673 51.204C132.363 51.204 132.958 51.3575 133.46 51.6646C133.961 51.9693 134.348 52.4138 134.62 52.9983C134.891 53.5828 135.026 54.2923 135.024 55.1269C135.024 55.9665 134.888 56.6847 134.616 57.2816C134.344 57.8784 133.957 58.3354 133.456 58.6524C132.957 58.9669 132.363 59.1242 131.673 59.1242ZM131.673 57.445C132.029 57.445 132.321 57.2593 132.548 56.8878C132.778 56.5138 132.891 55.9269 132.889 55.1269C132.889 54.6044 132.837 54.1772 132.733 53.8453C132.629 53.5134 132.486 53.2682 132.303 53.1097C132.12 52.9488 131.91 52.8683 131.673 52.8683C131.317 52.8683 131.027 53.0491 130.802 53.4106C130.577 53.7722 130.462 54.3443 130.458 55.1269C130.455 55.6594 130.506 56.0978 130.609 56.442C130.713 56.7838 130.857 57.0364 131.039 57.1999C131.225 57.3633 131.436 57.445 131.673 57.445Z" fill="white"/>
<path d="M139.012 59.1242C138.323 59.1217 137.728 58.962 137.226 58.645C136.724 58.328 136.338 57.871 136.066 57.2742C135.794 56.6773 135.659 55.9616 135.662 55.1269C135.664 54.2898 135.8 53.5791 136.07 52.9946C136.341 52.4101 136.727 51.9655 137.226 51.6609C137.728 51.3563 138.323 51.204 139.012 51.204C139.702 51.204 140.297 51.3575 140.799 51.6646C141.3 51.9693 141.687 52.4138 141.959 52.9983C142.231 53.5828 142.365 54.2923 142.363 55.1269C142.363 55.9665 142.227 56.6847 141.955 57.2816C141.683 57.8784 141.297 58.3354 140.795 58.6524C140.296 58.9669 139.702 59.1242 139.012 59.1242ZM139.012 57.445C139.368 57.445 139.66 57.2593 139.887 56.8878C140.117 56.5138 140.231 55.9269 140.228 55.1269C140.228 54.6044 140.176 54.1772 140.072 53.8453C139.969 53.5134 139.825 53.2682 139.643 53.1097C139.46 52.9488 139.25 52.8683 139.012 52.8683C138.657 52.8683 138.366 53.0491 138.141 53.4106C137.917 53.7722 137.802 54.3443 137.797 55.1269C137.794 55.6594 137.845 56.0978 137.949 56.442C138.053 56.7838 138.196 57.0364 138.379 57.1999C138.564 57.3633 138.775 57.445 139.012 57.445Z" fill="white"/>
<path d="M106.362 40.3915C106.362 39.0642 107.749 38.1934 108.945 38.7704L115.785 42.0726C116.407 42.3729 116.802 43.0028 116.802 43.6936V44.0214C116.802 45.1397 115.793 45.9873 114.692 45.7945L111.73 45.2762C110.623 45.0824 109.611 45.9398 109.62 47.064L109.942 86.5784C109.952 87.7836 108.792 88.654 107.638 88.3076C106.881 88.0805 106.362 87.3835 106.362 86.593V40.3915Z" fill="url(#paint5_linear_9488_7595)"/>
<path d="M106.722 40.3439C106.722 39.0284 108.087 38.1573 109.28 38.7112L115.76 41.7199C116.396 42.0149 116.802 42.6519 116.802 43.3525V43.6418C116.802 44.7666 115.782 45.6159 114.676 45.4121L112.088 44.9354C110.982 44.7316 109.962 45.5809 109.962 46.7056V86.3972C109.962 87.5029 108.879 88.2837 107.83 87.9341C107.168 87.7135 106.722 87.0945 106.722 86.3972V40.3439Z" fill="url(#paint6_linear_9488_7595)"/>
<path d="M108.398 84.3248C108.802 84.3248 109.13 84.7277 109.13 85.2248C109.13 85.7219 108.802 86.1248 108.398 86.1248C107.994 86.1248 107.667 85.7219 107.667 85.2248C107.667 84.7277 107.994 84.3248 108.398 84.3248Z" fill="url(#paint7_radial_9488_7595)"/>
<path fill-rule="evenodd" clip-rule="evenodd" d="M108.346 84.3267C108.326 84.3252 108.306 84.3245 108.286 84.3245C107.82 84.3245 107.442 84.7274 107.442 85.2245C107.442 85.7216 107.82 86.1245 108.286 86.1245C108.306 86.1245 108.326 86.1237 108.346 86.1222C107.967 86.0893 107.667 85.6999 107.667 85.2245C107.667 84.749 107.967 84.3597 108.346 84.3267ZM109.13 85.2143C109.13 85.2177 109.13 85.2211 109.13 85.2245C109.13 85.2279 109.13 85.2313 109.13 85.2347C109.13 85.2313 109.13 85.2279 109.13 85.2245C109.13 85.2211 109.13 85.2177 109.13 85.2143Z" fill="url(#paint8_linear_9488_7595)"/>
<defs>
<linearGradient id="paint0_linear_9488_7595" x1="105.642" y1="161.007" x2="105.642" y2="117.446" gradientUnits="userSpaceOnUse">
<stop stop-color="white"/>
<stop offset="1" stop-color="#DADFE2"/>
</linearGradient>
<linearGradient id="paint1_linear_9488_7595" x1="43.0005" y1="104.485" x2="107.622" y2="67.4045" gradientUnits="userSpaceOnUse">
<stop stop-color="white"/>
<stop offset="1" stop-color="#C3CBD0"/>
</linearGradient>
<linearGradient id="paint2_linear_9488_7595" x1="165.044" y1="139.766" x2="103.302" y2="60.2043" gradientUnits="userSpaceOnUse">
<stop stop-color="#C4CBD1"/>
<stop offset="1" stop-color="white"/>
</linearGradient>
<linearGradient id="paint3_linear_9488_7595" x1="26.8" y1="193.948" x2="27.1601" y2="116.186" gradientUnits="userSpaceOnUse">
<stop stop-color="#B4C0C8"/>
<stop offset="1" stop-color="#DEE2E5"/>
</linearGradient>
<linearGradient id="paint4_linear_9488_7595" x1="135.523" y1="45.4436" x2="135.523" y2="64.8841" gradientUnits="userSpaceOnUse">
<stop stop-color="#FFBB1B"/>
<stop offset="1" stop-color="#FFE3A0"/>
</linearGradient>
<linearGradient id="paint5_linear_9488_7595" x1="111.402" y1="37.8836" x2="111.402" y2="89.0049" gradientUnits="userSpaceOnUse">
<stop stop-color="#F2AC09"/>
<stop offset="1" stop-color="#FFDC8A"/>
</linearGradient>
<linearGradient id="paint6_linear_9488_7595" x1="111.762" y1="37.5235" x2="111.762" y2="88.6448" gradientUnits="userSpaceOnUse">
<stop stop-color="#FEB814"/>
<stop offset="1" stop-color="#FFE8B3"/>
</linearGradient>
<radialGradient id="paint7_radial_9488_7595" cx="0" cy="0" r="1" gradientUnits="userSpaceOnUse" gradientTransform="translate(108.882 84.3248) rotate(116.565) scale(1.20751 1.48616)">
<stop stop-color="#FFE3A2"/>
<stop offset="1" stop-color="#FFBC1F"/>
</radialGradient>
<linearGradient id="paint8_linear_9488_7595" x1="107.442" y1="85.2245" x2="110.592" y2="85.2245" gradientUnits="userSpaceOnUse">
<stop stop-color="#F3AF0E"/>
<stop offset="1" stop-color="#FFD87F"/>
</linearGradient>
</defs>
</svg>
